<?xml version="1.0" encoding="UTF-8"?>
<svg id="uuid-d55693dc-61a8-43eb-8ab6-968b528c41aa" data-name="uuid-885df02f-c574-4a7b-9ebc-6a6af1c5eb33" xmlns="http://www.w3.org/2000/svg" viewBox="0 0 618 812">
  <g>
    <path d="M310.44,0c17.73-.12,34.27,5.34,49.75,13.64,41.06,22.46,82.07,45.49,123.09,68.03,13.02,7.27,26.19,14.18,39.08,21.7,10.25,5.71,20.68,11.11,30.81,17.01,10.86,6.14,21.71,12.49,31.05,20.81,16.48,14.11,27.87,33.79,32.09,55.05,2.43,14.42,1,30.18.44,44.81-2.11,37.16-4.06,74.28-6.47,111.42-1.09,25.23-3.41,50.37-4.16,75.63-1.45,17.25-2.3,34.5-4.37,51.69-1.42,10.51-4.87,20.27-9.13,29.92-8.14,16.94-21,31.39-36.78,41.58-13.65,8.68-27.78,16.6-41.83,24.57-30.05,16.57-59.69,34.05-89.18,51.59-3.39,1.65-6.73,4.55-10.47,1.98-4.29-2.79-8.47-5.24-13.05-7.55.24-.77.62-1.5,1.11-2.18,10.48-12.28,8.34-34.34-4.6-44.18-4.24-3.28-9.43-4.72-14.6-5.74-5.45-.89-11.64,1.86-17.01,2.95,5.08-7.55,8.03-16.02,10.54-24.71,3.6-14.03,1.75-27.6-1.73-41.38-4.03-13.05-11.28-24.97-21.08-34.49-5.34-5.17-11.5-7.15-15.21-13.97-7.3-12.68-6.48-30.49-7.59-44.73-1.49-1.14-2.95-2.32-4.39-3.53-3.16-.14-6.09-.05-9,1.34-8.35,3.71-16.38,8.03-24.96,11.25-4.95-6.94-9.65-13.99-13.63-21.54-15.92-27.48-31.21-55.34-46.28-83.28-7.08,11.59-13.15,23.87-19.67,35.78-18.37,35.66-37.76,70.95-56.17,106.58,8.24,1.28,16.35.39,24.61.43,5.01.01,9.9-.68,14.85-1.3,4.87-6.49,8.26-14.22,12.02-21.47,4.8-11.02,10.01-21.86,14.77-32.9,3.54-7.26,6.09-14.25,11.36-20.52,10.71,22.57,21.19,45.2,32.35,67.53-6.72,8.43-14.31,15.24-19.97,24.44-12.85,21.31-16.62,47.55-10.21,71.59,2.32,8.62,7.08,15.85,12.46,22.86-6.24-.09-13.16-.53-19.26,1.02-5.67,1.34-10.78,5.2-14.49,9.58-4.42,5.68-6.05,13.59-5.48,20.65.64,7.08,4.31,12.53,7.52,18.66-6.59,2.7-11.21,5.86-16.19,10.92-6.4-2.78-12.14-6.49-18.19-9.91-14.19-8.44-28.5-16.65-42.89-24.76-13.54-8.28-27.27-16.21-41.06-24.07-18.13-11.19-39.41-20.88-54.35-35.92-12.88-12.6-21.69-29.23-26.39-46.52-3.15-15.14-3.81-30.93-4.81-46.34-1.13-12.36-1.23-24.78-2.42-37.15-3.3-55.27-7.04-110.56-10.22-165.81-.41-9.32-.92-18.65-.76-27.95.66-15.1,4.68-30.07,11.63-43.51,9.59-18.1,24.66-32.58,42.45-42.58,14.2-8.44,28.62-16.47,43.02-24.54,29.98-16.43,59.79-33.14,89.76-49.57,23.61-12.69,46.68-26.07,70.47-38.45C273.65,5.31,291.91-.26,310.44,0Z" style="fill: #154122;"/>
    <path d="M309.11,28.99c8.86-.3,16.45,2.78,24.57,5.75,5.34,2.1,9.97,4.92,15.03,7.59,63.41,34.74,127.13,69,190.15,104.44,4.9,2.59,9.76,5.19,14.38,8.23,13.17,8.28,24.4,20.65,29.96,35.28,4.35,11.52,5.91,23.94,4.55,36.17-2.85,62.42-6.57,124.75-10.78,187.09-.5,6.7-.28,13.28-1.72,19.9-7.36-1.65-14.51-3.97-21.93-5.35-19.32-3.63-38.75-8.38-58.15-11.39-1.14-.2-2.23-.51-3.28-.92-1.82-3.88-2.17-8.58-2.55-12.83-.36-8.43-1.99-16.68-2.07-25.11,14.95,7.68,31.99,11.86,48.83,11.35,6.35-.11,12.32-.3,17.19-4.92,3.72-3.16,2.83-9.41-1.23-11.88-7.25-5.24-16.82-8.23-24.6-12.53-12.19-6.77-23.13-15.58-32.24-26.15-2.95-3.5-6.09-6.81-9.16-10.19,10.16,2.52,19.4,6.63,30.1,7.25,7,.4,16.05,1.24,22.32-2.4,3.86-2.01,4.83-6.84,3.26-10.66-2.18-3.52-6.93-5.36-10.57-6.97-14.43-6.28-27.67-14.66-38.03-26.66-5.63-5.97-9.82-12.88-14.7-19.43,0-1.22,0-2.44.01-3.66.11.73.2,1.44.31,2.17,8.55,5.17,18.35,8.7,28.2,10.34,4.93.72,12.02,1.66,16.25-1.6,2.61-1.55,1.99-5.65,2.45-8.28-2.3-2.21-4.53-4.44-7.24-6.17-9.33-6.13-18.32-12.25-25.81-20.66-9.13-9.44-16.89-20.38-22.81-32.07,7.81,6.55,16.97,12.82,26.79,15.79,5.61,1.65,10.97-.7,13.76-5.73.24-3.29-3.89-6.2-6.09-8.2-14.43-11.22-26.69-25.63-35.1-41.88-4.18-8-4.22-15.87-10.84-22.45-2.43.52-6.48.12-7.98,2.5-3.87,5.91-6.03,13.53-9.36,19.81-5.75,10.66-12.85,20.46-21.85,28.59-5.19,5.65-12.2,9-17.34,14.56-2.89,2.89-.97,6.19-.3,9.57,3.66,1.82,6.48,3.86,10.79,2.73,10.16-2.1,19.54-10.13,28.56-15.14-1.99,5.9-5.78,10.36-9.14,15.44-4.04,6-8.76,11.54-13.72,16.81-4.84,5.13-10.74,8.71-15.98,13.26-3.98,3.45-3.04,8.51-2.18,13.11.44,3.81,4.74,6.07,8.02,7.06,10.82-.41,20.55-5.13,29.56-10.75-4.07,5.94-7.56,12.24-11.73,18.13-3.42,4.85-7.01,9.53-9.89,14.75,10.54,20.61,21.53,41.01,32.37,61.48,6.23,10.77,11.29,22.14,17.47,32.95,8.06,14.88,15.93,29.89,24.49,44.52,4.88,9.25,10.51,16.79,13.59,26.5-6.63,2-13.89,3-20.82,2.45-1.1-.11-1.98-.6-2.64-1.53-3.15-4.68-5.23-10.05-7.94-14.99-15.73-29.44-30.71-59.27-46.56-88.65-12.28-24.27-25.34-48.1-38.05-72.14-1.33-2.43-2.78-4.77-4.28-7.1-52.22-.14-104.41-.02-156.64-.15-2.17.09-4.58-.04-6.66.65-3.22,4.49-5.67,9.6-8.31,14.44-13.68,25.61-27.35,51.69-41,77.25-16.18,30.66-32.24,61.38-49.77,91.31-7.33,2.17-12.93,2.06-20.16-.41.09-2.46.07-4.71,1.4-6.9,6.35-12.02,13.81-23.39,19.92-35.55-8.69,1.62-17.46,2.77-26.14,4.54-18.23,3.81-35.74,6.04-53.52,11.92-1.14-11.37-1.05-22.86-1.76-34.25-2.29-33.64-4.24-67.27-6.17-100.93-2.05-24.73-2.39-49.53-4.1-74.27-.92-8.39-.23-16.91,1.8-25.1,3.03-13.78,11.56-26.46,21.95-35.84,9.8-8.25,22.65-14.28,33.75-20.68,34.54-18.91,68.72-38.51,103.31-57.28,26.83-14.73,53.73-29.39,80.5-44.17,12.28-5.96,23.16-11.92,37.26-11.74l.02-.06Z" style="fill: #fff;"/>
    <path d="M313,80.52c3.3,1.34,4.55,5.98,5.93,8.97,5.57,14.56,13.7,27.94,23.69,39.9,6.09,7.8,13.68,13.64,21.32,20.52-.34,1.83-.38,3.92-1.21,5.61-1.95,2.46-5.57,3.81-8.33,5.2-10.3-3.04-19.59-10.74-28.07-17.12,8.26,17.42,19.99,33.03,35.26,44.92,4.22,3.8,9.87,6.3,13.48,10.64,2.67,4.61.79,8.13-1.72,12.17-4.17.32-8.23.64-12.34-.34-11.44-2.01-18.95-9.71-29.94-14.72,2.38,3.08,4.71,6.16,6.67,9.53,7.04,12.6,17.99,23.12,29.67,31.42,4.1,2.96,8.97,5.6,12.4,9.33,2.23,2.73,1.79,6.31-.64,8.77-3.3,4.08-8.24,3.3-12.97,3.59-35.39.07-70.8.23-106.2-.01-5.73-.04-11.67.45-17.35-.34-2.81-.44-5.4-2.72-7.71-4.26.37-2.19.5-4.54,1.23-6.63,1.75-2.79,5.68-4.29,8.4-6.05,17.19-10.76,31.59-25.64,39.8-44.36-11.09,7.9-22.43,14.11-36.32,14.97-6.04-.61-10.87-5.48-7.78-11.74,4.15-5.07,10.87-8.02,15.85-12.28,13.66-11.21,25.1-25.73,33.69-41.11-9.06,3.6-16.3,12.29-25.87,13.38-3.6-.34-7.39-3.84-9.58-6.56-.47-4.2,3.32-6.78,5.97-9.37,17.12-14.1,30.45-33.15,39.59-53.24,1.41-2.98,2.68-6.23,4.55-8.95,1.82-2.55,5.8-3.32,8.54-1.8h-.01Z" style="fill: #154122;"/>
    <path d="M164.31,141.91c3.4,2.43,6.27,5.14,7.63,9.2,7.7,22.22,22.73,41.49,40.9,56.19,5.54,5.08-1.18,14.15-7.78,12.62-10.46-2.15-20.55-9.6-29.54-15.11,10.01,16.54,19.4,32.25,36.01,43.12-2.75,6.75-6.93,13.06-10.75,19.25-6.97-2.3-13.44-5.46-20.2-8.26,3.77,7.11,8.71,13.64,13.81,19.84-2.87,6.33-6.16,12.44-9.05,18.78-10.97,21.03-21.26,42.37-32.73,63.15-7.47,13.48-13.68,28.2-22.85,40.62-1.84-7.39-2.26-14.85-1.98-22.44-16.62,7.38-34.1,11.52-52.38,9.9-4.55-.4-10.42-1.78-13.56-5.3-4.1-5.17.59-11.37,5.21-14.08,9.03-4.54,18.87-6.97,27.62-12.28,14.66-8.87,26.02-21.1,36.32-34.62-5.58,1.42-10.91,3.37-16.32,5.29-6.89,2.53-14.65,3.11-21.96,3.34-4.93-.12-10.98-.21-14.47-4.26-2.5-2.27-1.95-6.42-.83-9.23,1.66-3.03,5.64-4.94,8.66-6.38,9.74-4.36,19.21-9.38,27.48-16.17,8.14-6.33,14.15-13.89,20.79-21.69,3.39-3.95,5.28-8.67,8.35-12.83-6.05,5.8-13.4,7.84-21.11,10.45-7.05,2.43-14.81,3.26-22.22,2.89-3.6-.2-7.05-2.37-7.18-6.24-.33-5.13,3.44-7.77,7.25-10.25,9.24-5.62,17.92-11.77,25.64-19.38,9.58-9.54,19.49-20.85,24.45-33.55-9.35,6.12-17.8,12.17-28.61,15.7-3.4.85-8.21.77-10.75-2.01-1.4-1.94-1.65-4.79-1.2-7.08,1.54-2.33,4.05-4.22,6.17-6.03,7.56-6.2,14.08-13.19,20.46-20.58,8.54-10.09,14.63-21.57,19.39-33.84,1.87-4.61,3.92-8.05,9.3-8.73h0Z" style="fill: #154122;"/>
    <path d="M315.34,437.69c1.56,4.82,1.35,10.41,2.18,15.49,1.58,9,5.02,17.58,11,24.59,8.56,11.41,18.95,18.52,24.81,32.01,3.51,8.82,5.89,18.98,4.64,28.49-1.07,11.59-6.5,23.11-15.69,30.48-8.6,7.66-20.36,10.41-31.64,8.56,3.4-6.2,8.55-10.66,11.35-17.09,3.19-7.15,4.62-15.1,4.57-22.9-.72-13.45-10.01-26.2-19.65-34.99-.4,7.81.12,14.83-3.87,21.95-4,8.09-12.57,9.97-16.39,17.82-1.88,4.02-2,9.02-1.82,13.4.41,7.58,4.96,14.07,7.66,21.03-11.41-.63-22.21-8.95-29-17.69-8.22-11.63-12.32-26.28-11.3-40.49.57-10.37,3.81-21.76,12.12-28.62,1.17,5.72,3.04,10.73,6.62,15.4,1.47,2.28,3.94,3.4,6.63,3.1,1.54-5.49-.72-12.06-1.08-17.71-1.3-7.88.79-15.04,3.45-22.35,3.99-11.34,13.01-20.99,23.25-27.05,3.39-1.94,8.14-4.43,12.12-3.41h.01Z" style="fill: #154122;"/>
    <path d="M238.01,589.37c6.16-2.28,13.83.26,19.95,1.83,16.68,5.08,33.41,10.11,49.94,15.64,4.06.83,8.91-1.8,12.79-2.95,13.55-4.75,27.53-8.28,41.21-12.67,6.45-1.83,12.58-4.51,19.15-1.35,5.96,3.07,7.68,10.79,4,16.29-3.28,4.68-9.19,7.58-14.59,9.06-6.38,1.8-12.44,4.14-18.95,5.4,11.34,3.86,22.96,6.52,34.1,11.14,3.71,1.67,6.95,4.82,8.43,8.64,1.27,4.95.46,10.23-3.28,13.92-3.54,3.92-8.98,5.03-14,3.92-8.97-1.99-17.68-5.64-26.47-8.36-13.94-4.75-27.97-9.23-41.93-13.92-1.78-.63-3.76.31-5.48.83-14.32,5.42-29,10.18-43.55,15.02-7.77,2.68-16.38,6.55-24.64,6.91-8.6-.75-14.83-10.63-10.91-18.65,3.09-7.81,10.73-9.19,17.74-11.84,6.57-2.68,13.53-4.49,19.9-7.57-6.52-2.18-13.16-3.74-19.73-5.59-3.87-1.2-7.63-2.59-10.12-6-5.2-6.3-1.39-17.59,6.44-19.73v.03Z" style="fill: #154122;"/>
  </g>
  <g>
    <path d="M263.23,713.76c2.31-.39,5.03-.28,7.03,1.09,4.43,2.57,5.72,9.44,2.33,13.35-3.37,4.7-11.4,4.47-14.48-.47-3.41-5.04-1.23-12.74,5.13-13.97h0Z" style="fill: #154122;"/>
    <path d="M495.99,713.83c2.77-.48,5.76-.35,8.08,1.41,1.98,1.33,2.89,3.92,3.31,6.17.67,3.91-1.87,7.68-5.27,9.39-3.95,1.66-8.83.5-11.07-3.32-3.37-4.69-.71-12.3,4.95-13.65h0Z" style="fill: #154122;"/>
    <path d="M233.31,714.79c5.18.02,10.35.1,15.54-.04.13,24.97.06,49.95.05,74.93-5.19-.08-10.39-.04-15.58-.08.18-24.93.08-49.87,0-74.8h0Z" style="fill: #154122;"/>
    <path d="M549.42,714.79c5.13.33,10.25.25,15.38.3.36,24.85,0,49.69.2,74.54-5.09-.07-10.17.14-15.25-.1-.1-1.75-.14-3.51-.17-5.26-2.16,2.53-4.35,4.83-7.5,6.12-5.88,2.18-12.73,1.19-18.03-2.07-5.59-3.28-8.96-9.74-10.18-15.93-1.69-7.2-1.05-14.82,1.56-21.72,2.19-5.27,5.38-9.96,10.56-12.66,5.48-3.15,12.77-3.7,18.34-.52,2.18,1.21,3.51,3.07,4.92,5.04.37-9.23.01-18.49.16-27.73h0Z" style="fill: #154122;"/>
    <path d="M346.28,720.31c1.01,5.43.3,11.08.75,16.6,3.39,0,6.78,0,10.17-.13-.04,4.05-.08,8.09-.03,12.14-3.47.04-6.94.02-10.41.01-.8,5.8-.14,11.75-.41,17.61.11,3.44-.07,8.85,2.97,11.16,2.19.77,4.89.13,7.15-.17.3,3.95.15,7.87-.07,11.81-3.86,1.13-7.94,2.66-12.02,1.93-3.17-.52-6.93-1.47-9.14-3.97-2.71-2.72-3.39-6.9-3.47-10.58-.17-9.28-.06-18.57-.11-27.85-2.67.07-5.35.11-8.02.13-.21-4.06-.15-8.12-.2-12.19,2.73,0,5.46.04,8.19.07.03-4.12.07-8.22.01-12.34,4.85-1.54,9.74-2.83,14.62-4.25l.02.02Z" style="fill: #154122;"/>
    <path d="M31.16,736.15c8.12,2.2,14.43,9.38,14.94,17.9-4.48.93-8.67,2.74-13.17,3.5-.89-3.28-1.27-6.26-4.53-8.06-3.73-1.45-8.78.22-10.63,3.87-1.95,3.4-1.99,7.9-1.99,11.72-.03,3.82.8,7.53,2.98,10.72,2.27,3,7,3.6,10.17,1.77,2.43-1.68,3.53-4.56,4.81-7.09,4.06,1.24,8.2,1.52,12.37,2.19-.07,5.97-3.17,11.43-7.84,15.05-3.95,2.89-9.1,3.71-13.89,3.78-5.83.25-11.79-2.01-16-6.06-4.31-3.91-6.57-10.21-7.48-15.83-.86-6.03-.66-12.66,1.66-18.37,1.85-4.66,4.85-9.21,9.24-11.82,5.64-3.74,12.81-4.93,19.35-3.28h0Z" style="fill: #154122;"/>
    <path d="M73.11,735.4c5.77.02,11.95,2.12,15.82,6.56,2.94,3.71,4.07,9.02,4.16,13.67.31,11.32-.11,22.67.28,33.99-4.61.03-9.22.05-13.83.02-.16-1.52-.29-3.04-.31-4.56-2.74,3.36-6.27,5.74-10.62,6.35-5.97.78-13.2-1.53-16.3-7.04-2.19-3.39-2.47-7.24-2.04-11.16.5-3.66,2.81-7.05,5.76-9.21,6.57-4.18,14.9-4.64,22.52-5.42.04-2.74.55-6.18-1.5-8.36-2.39-2.81-6.45-2.76-9.33-.71-2,1.25-2.49,3.47-3.32,5.51-4.28-.67-8.63-.89-12.93-1.48-.07-4.88,1.93-9.38,5.52-12.66,4.47-3.82,10.28-5.68,16.14-5.5h0Z" style="fill: #154122;"/>
    <path d="M132.93,735.83c4.06.87,7.36,3.51,9.53,6.99,2.38-3.84,6.2-5.53,10.34-6.85,6.35-1.53,13.89.48,17.55,6.15,2.83,4.69,2.98,10.4,2.96,15.7-.07,10.69.06,21.38-.07,32.06-4.85-.39-9.74-.26-14.6-.2.1-10.37.03-20.74.05-31.13-.05-2.42,0-4.95-1.37-7.06-2.1-3.17-7.29-3.42-9.95-.83-2.14,2.06-2.81,5-2.75,7.88.08,10.39-.05,20.77.1,31.16-5.05-.04-10.11-.17-15.16-.01-.03-11.11.03-22.23-.06-33.34.02-2.68-.63-5.22-2.97-6.8-3.02-1.71-7.34-.6-9.26,2.26-1.42,2.62-1.37,6.03-1.39,8.93.02,9.63-.06,19.27.1,28.9-4.94-.01-9.88.04-14.81-.05.16-17.57.03-35.16.05-52.74,4.6.2,9.21.06,13.82.05.07,1.98.08,3.95.03,5.93,3.5-6.22,11.14-8.58,17.87-6.99h0Z" style="fill: #154122;"/>
    <path d="M215.6,736.75c5.52,2.25,8.79,7.08,10.88,12.44,2.74,7.27,2.33,14.86,1.39,22.42-.84,6.18-3.72,11.96-8.61,15.91-2.83,2.31-6.61,3.39-10.18,3.78-4.96.45-9.92-.57-13.25-4.56-.39,7.97-.21,15.94-.32,23.92-5.09.28-10.2.17-15.29.07.08-24.64.24-49.28.04-73.93,4.66.13,9.33.07,14,.2.1,2.22.1,4.42.03,6.64,4.09-7.54,13.59-10.14,21.3-6.9h0Z" style="fill: #154122;"/>
    <path d="M300.74,735.41c4.79-.11,9.79,1.48,13.49,4.54,3.53,3.19,4.67,7.4,5.26,11.97-4.14.54-8.24,1.28-12.38,1.78-.9-2.14-1.27-4.13-3.4-5.42-2.18-1.74-5.67-1.36-7.82.26-1.77,1.51-2.36,4.16-.57,5.92,3.51,3.02,8.21,2.83,12.53,4.34,4.37,1.48,9.46,3.48,11.94,7.62,2.13,3.17,2.15,7.2,1.73,10.87-.46,3.82-2.43,7.26-5.47,9.62-3.82,2.86-8.38,4.22-13.11,4.51-6.09.6-12.2-.52-17.27-4.03-3.6-2.62-5.73-6.71-6.36-11.08,3.57-2.37,8.72-2.6,12.85-3.43.51,1.49.91,3.4,1.98,4.58,3.15,3.37,9.14,3.89,12.76,1.03,2.19-1.69.96-5.67-1.41-6.52-7.03-2.95-13.6-3.13-19.79-7.83-6.59-4.7-6.65-15.17-2.1-21.27,3.79-5.42,10.77-7.55,17.12-7.46h0Z" style="fill: #154122;"/>
    <path d="M408.42,735.97c3.18.77,5.21,2.78,7.66,4.76.11.49.24.98.35,1.46.75-1.51,1.17-4.84,3.15-5.21,3.32-.33,6.72-.07,10.06-.11.06,15.94-.1,31.9.08,47.84-.01,4.8.31,9.65-1.28,14.27-2.18,6.15-7.83,10.53-14.04,12.09-6.06,1.57-12.07.96-18.08-.51-4.15-.99-7.92-3.21-11.52-5.4,2.1-4.04,4.59-7.83,6.79-11.82,4.39,3.42,9.53,5.64,15.19,5.12,4.01,0,7.41-3.31,8.2-7.12.46-2.86.17-5.9.29-8.8-4.31,6.66-13.18,8.21-20.21,5.3-4.4-1.74-7.24-5.32-9.47-9.34-3.39-6.62-4.09-14.13-3.14-21.44.69-5.79,2.99-11.67,7.15-15.86,4.76-4.85,12.25-6.84,18.82-5.23h0Z" style="fill: #154122;"/>
    <path d="M604.01,737.46c7.05,3.02,11.08,9.63,12.77,16.86.87,4.43.81,8.82.74,13.31-10.61-.04-21.25-.13-31.86.21.43,3.5,1.58,6.74,4.28,9.13,2.63,2.03,6.2,2.76,9.36,1.63,2.89-.81,4.27-3.48,6.44-5.32,4.01.92,7.91,2.59,11.81,3.89-2.06,3.34-3.56,6.79-6.68,9.29-4.68,4.07-11.74,5.35-17.77,5.01-7.28-.25-14.36-4.24-18.14-10.5-3.74-5.86-5.05-13.31-4.56-20.16.83-6.04,2.26-11.73,6.18-16.56,6.18-8.21,18.11-11.2,27.43-6.8v.02Z" style="fill: #154122;"/>
    <path d="M258.02,736.93c4.97-.16,9.95,0,14.92-.1.14,17.59,0,35.18.08,52.76-5.03.03-10.06.03-15.1,0,.17-17.53,0-35.16.1-52.67h0Z" style="fill: #154122;"/>
    <path d="M437.62,736.91c4.95-.1,9.9.08,14.84-.02-.07,10.12.05,20.26,0,30.39.04,2.16,0,4.55.64,6.63.59,2.12,2.57,3.78,4.74,4.09,2.89.28,5.7.04,7.84-2.12,1.9-1.66,1.75-4.1,1.86-6.41-.03-10.88-.02-21.76-.04-32.64,5.17.15,10.35.1,15.52.05.1,17.59-.17,35.19.07,52.78-4.94-.07-9.88.07-14.82-.04-.14-1.54-.28-3.08-.42-4.63-2.13,2.2-4.32,4.18-7.23,5.29-6.56,2.41-15.27,1.18-19.58-4.79-2.16-3.14-3.45-7.09-3.36-10.92-.05-12.57.08-25.14-.07-37.65h0Z" style="fill: #154122;"/>
    <path d="M491.2,736.88c5.16.04,10.32-.01,15.48.06.1,17.57.07,35.13.08,52.7-5.21-.04-10.42.08-15.64-.06.04-17.56-.05-35.13.07-52.7h0Z" style="fill: #154122;"/>
    <path d="M599.72,749.8c2.54,2.33,2.78,5.19,3.28,8.39-5.79-.11-11.58,0-17.37-.07.74-3.13,1.22-6.11,3.84-8.28,2.86-2.55,7.41-2.72,10.24-.04h0Z" style="fill: #fff;"/>
    <path d="M547.35,751.94c2.73,3.67,2.3,7.41,2.29,11.7-.1,4,.64,7.74-2.19,11.01-3.69,4.74-11.3,4.83-15.34.57-3.28-3.77-3.65-8.61-3.65-13.39.11-4.01,1.66-8.85,4.97-11.35,4.12-2.78,10.9-3.11,13.92,1.47h0Z" style="fill: #fff;"/>
    <path d="M209.31,750.32c3.39,3.11,4.1,8.22,4.1,12.58s.03,8.9-2.79,12.37c-2.49,3.24-7.33,3.88-10.91,2.22-1.66-.79-3.51-2.07-3.82-4.02-.55-3.2-.32-6.59-.34-9.84.18-3.8-.5-7.78,1.65-11.11,2.4-4.08,8.45-5.29,12.1-2.2h0Z" style="fill: #fff;"/>
    <path d="M413.51,751.95c2.18,3.73,1.61,7.55,1.69,11.67-.08,3.6.41,6.83-2.15,9.74-3.24,3.57-10.87,3.37-13.23-1.18-2.16-3.48-2.25-7.51-2.11-11.49.18-3.42,1.27-7.33,3.78-9.78,3.17-3.34,9.56-3.01,12.02,1.03h0Z" style="fill: #fff;"/>
    <path d="M78.65,767.27c.03,2.78.13,5.92-.71,8.6-.52,1.8-2.71,2.81-4.3,3.46-2.04.66-4.81,1.13-6.68-.18-3.11-2-2.89-7.17.24-9.07,3.31-1.93,7.71-2.25,11.46-2.81h0Z" style="fill: #fff;"/>
    <path d="M365.86,774.21c2.3-1.05,5.16-1.03,7.61-.52,4.47,1.28,6.89,6.71,5.76,11.03-.85,3.86-4.74,6.76-8.66,6.71-4.89.13-9.03-4.1-9.26-8.92-.31-3.45,1.68-6.55,4.56-8.29h0Z" style="fill: #154122;"/>
  </g>
</svg>