<?xml version="1.0" encoding="UTF-8"?>
<svg id="uuid-4eb111fc-14ab-47cb-af92-3aa069226f49" data-name="Layer 1" xmlns="http://www.w3.org/2000/svg" viewBox="0 0 120 120">
  <defs>
    <style>
      .uuid-79ab16b5-de77-4bb0-81f4-aee8caadc90f {
        fill: #fff;
      }

      .uuid-6ecfc6e0-4321-4cd4-a14c-8d8c37be74b2 {
        fill: #154122;
      }
    </style>
  </defs>
  <path class="uuid-6ecfc6e0-4321-4cd4-a14c-8d8c37be74b2" d="M60.09,13.21c1.86-.01,3.59.56,5.21,1.43,4.3,2.35,8.6,4.76,12.9,7.13,1.36.76,2.74,1.49,4.09,2.27,1.07.6,2.17,1.16,3.23,1.78,1.14.64,2.28,1.31,3.25,2.18,1.73,1.48,2.92,3.54,3.36,5.77.25,1.51.1,3.16.05,4.7-.22,3.89-.43,7.78-.68,11.67-.11,2.64-.36,5.28-.44,7.92-.15,1.81-.24,3.61-.46,5.42-.15,1.1-.51,2.12-.96,3.13-.85,1.77-2.2,3.29-3.85,4.36-1.43.91-2.91,1.74-4.38,2.57-3.15,1.74-6.25,3.57-9.34,5.4-.35.17-.71.48-1.1.21-.45-.29-.89-.55-1.37-.79.03-.08.06-.16.12-.23,1.1-1.29.87-3.6-.48-4.63-.44-.34-.99-.49-1.53-.6-.57-.09-1.22.19-1.78.31.53-.79.84-1.68,1.1-2.59.38-1.47.18-2.89-.18-4.34-.42-1.37-1.18-2.62-2.21-3.61-.56-.54-1.2-.75-1.59-1.46-.76-1.33-.68-3.19-.8-4.69-.16-.12-.31-.24-.46-.37-.33-.02-.64,0-.94.14-.87.39-1.72.84-2.61,1.18-.52-.73-1.01-1.47-1.43-2.26-1.67-2.88-3.27-5.8-4.85-8.72-.74,1.21-1.38,2.5-2.06,3.75-1.92,3.74-3.96,7.43-5.88,11.17.86.13,1.71.04,2.58.04.52,0,1.04-.07,1.56-.14.51-.68.86-1.49,1.26-2.25.5-1.16,1.05-2.29,1.55-3.45.37-.76.64-1.49,1.19-2.15,1.12,2.36,2.22,4.74,3.39,7.07-.7.88-1.5,1.6-2.09,2.56-1.35,2.23-1.74,4.98-1.07,7.5.24.9.74,1.66,1.31,2.39-.65,0-1.38-.06-2.02.11-.59.14-1.13.54-1.52,1-.46.59-.63,1.42-.57,2.16.07.74.45,1.31.79,1.95-.69.28-1.17.61-1.7,1.14-.67-.29-1.27-.68-1.91-1.04-1.49-.88-2.99-1.74-4.49-2.59-1.42-.87-2.86-1.7-4.3-2.52-1.9-1.17-4.13-2.19-5.69-3.76-1.35-1.32-2.27-3.06-2.76-4.87-.33-1.59-.4-3.24-.5-4.86-.12-1.3-.13-2.6-.25-3.89-.35-5.79-.74-11.58-1.07-17.37-.04-.98-.1-1.95-.08-2.93.07-1.58.49-3.15,1.22-4.56,1.01-1.9,2.58-3.41,4.45-4.46,1.49-.88,3-1.72,4.51-2.57,3.14-1.72,6.26-3.47,9.4-5.19,2.47-1.33,4.89-2.73,7.38-4.03,1.67-.96,3.59-1.55,5.53-1.52Z"/>
  <path class="uuid-79ab16b5-de77-4bb0-81f4-aee8caadc90f" d="M59.95,16.25c.93-.03,1.72.29,2.57.6.56.22,1.04.52,1.57.8,6.64,3.64,13.32,7.23,19.92,10.94.51.27,1.02.54,1.51.86,1.38.87,2.56,2.16,3.14,3.7.45,1.21.62,2.51.48,3.79-.3,6.54-.69,13.07-1.13,19.6-.05.7-.03,1.39-.18,2.08-.77-.17-1.52-.42-2.3-.56-2.02-.38-4.06-.88-6.09-1.19-.12-.02-.23-.05-.34-.1-.19-.41-.23-.9-.27-1.34-.04-.88-.21-1.75-.22-2.63,1.57.8,3.35,1.24,5.11,1.19.66-.01,1.29-.03,1.8-.52.39-.33.3-.99-.13-1.24-.76-.55-1.76-.86-2.58-1.31-1.28-.71-2.42-1.63-3.38-2.74-.31-.37-.64-.71-.96-1.07,1.07.26,2.03.69,3.15.76.73.04,1.68.13,2.34-.25.4-.21.51-.72.34-1.12-.23-.37-.73-.56-1.11-.73-1.51-.66-2.9-1.54-3.98-2.79-.59-.63-1.03-1.35-1.54-2.03,0-.13,0-.26,0-.38.01.08.02.15.03.23.9.54,1.92.91,2.96,1.08.52.08,1.26.17,1.7-.17.27-.16.21-.59.26-.87-.24-.23-.47-.47-.76-.65-.98-.64-1.92-1.28-2.7-2.16-.96-.99-1.77-2.13-2.39-3.36.82.69,1.78,1.34,2.81,1.65.59.17,1.15-.07,1.44-.6.03-.34-.41-.65-.64-.86-1.51-1.18-2.8-2.69-3.68-4.39-.44-.84-.44-1.66-1.13-2.35-.25.05-.68.01-.84.26-.41.62-.63,1.42-.98,2.08-.6,1.12-1.35,2.14-2.29,3-.54.59-1.28.94-1.82,1.53-.3.3-.1.65-.03,1,.38.19.68.4,1.13.29,1.07-.22,2.05-1.06,2.99-1.59-.21.62-.6,1.09-.96,1.62-.42.63-.92,1.21-1.44,1.76-.51.54-1.13.91-1.67,1.39-.42.36-.32.89-.23,1.37.05.4.5.64.84.74,1.13-.04,2.15-.54,3.1-1.13-.43.62-.79,1.28-1.23,1.9-.36.51-.73,1-1.04,1.55,1.1,2.16,2.26,4.3,3.39,6.44.65,1.13,1.18,2.32,1.83,3.45.84,1.56,1.67,3.13,2.57,4.66.51.97,1.1,1.76,1.42,2.78-.7.21-1.46.31-2.18.26-.12-.01-.21-.06-.28-.16-.33-.49-.55-1.05-.83-1.57-1.65-3.08-3.22-6.21-4.88-9.29-1.29-2.54-2.65-5.04-3.99-7.56-.14-.25-.29-.5-.45-.74-5.47-.02-10.94,0-16.41-.02-.23,0-.48,0-.7.07-.34.47-.59,1.01-.87,1.51-1.43,2.68-2.86,5.42-4.29,8.09-1.7,3.21-3.38,6.43-5.21,9.57-.77.23-1.35.22-2.11-.04,0-.26,0-.49.15-.72.66-1.26,1.45-2.45,2.09-3.73-.91.17-1.83.29-2.74.48-1.91.4-3.74.63-5.61,1.25-.12-1.19-.11-2.39-.18-3.59-.24-3.52-.44-7.05-.65-10.57-.21-2.59-.25-5.19-.43-7.78-.1-.88-.02-1.77.19-2.63.32-1.44,1.21-2.77,2.3-3.75,1.03-.86,2.37-1.5,3.53-2.17,3.62-1.98,7.2-4.04,10.82-6,2.81-1.54,5.63-3.08,8.43-4.63,1.29-.62,2.43-1.25,3.9-1.23Z"/>
  <path class="uuid-6ecfc6e0-4321-4cd4-a14c-8d8c37be74b2" d="M60.36,21.65c.35.14.48.63.62.94.58,1.53,1.44,2.93,2.48,4.18.64.82,1.43,1.43,2.23,2.15-.04.19-.04.41-.13.59-.2.26-.58.4-.87.54-1.08-.32-2.05-1.12-2.94-1.79.86,1.83,2.09,3.46,3.69,4.71.44.4,1.03.66,1.41,1.11.28.48.08.85-.18,1.27-.44.03-.86.07-1.29-.04-1.2-.21-1.99-1.02-3.14-1.54.25.32.49.64.7,1,.74,1.32,1.88,2.42,3.11,3.29.43.31.94.59,1.3.98.23.29.19.66-.07.92-.35.43-.86.35-1.36.38-3.71,0-7.42.02-11.12,0-.6,0-1.22.05-1.82-.04-.29-.05-.57-.28-.81-.45.04-.23.05-.48.13-.69.18-.29.6-.45.88-.63,1.8-1.13,3.31-2.69,4.17-4.65-1.16.83-2.35,1.48-3.8,1.57-.63-.06-1.14-.57-.81-1.23.43-.53,1.14-.84,1.66-1.29,1.43-1.17,2.63-2.7,3.53-4.31-.95.38-1.71,1.29-2.71,1.4-.38-.04-.77-.4-1-.69-.05-.44.35-.71.63-.98,1.79-1.48,3.19-3.47,4.15-5.58.15-.31.28-.65.48-.94.19-.27.61-.35.89-.19Z"/>
  <path class="uuid-6ecfc6e0-4321-4cd4-a14c-8d8c37be74b2" d="M44.78,28.08c.36.25.66.54.8.96.81,2.33,2.38,4.35,4.28,5.89.58.53-.12,1.48-.81,1.32-1.1-.23-2.15-1.01-3.09-1.58,1.05,1.73,2.03,3.38,3.77,4.52-.29.71-.73,1.37-1.13,2.02-.73-.24-1.41-.57-2.12-.87.39.75.91,1.43,1.45,2.08-.3.66-.65,1.3-.95,1.97-1.15,2.2-2.23,4.44-3.43,6.62-.78,1.41-1.43,2.96-2.39,4.26-.19-.77-.24-1.56-.21-2.35-1.74.77-3.57,1.21-5.49,1.04-.48-.04-1.09-.19-1.42-.56-.43-.54.06-1.19.55-1.47.95-.48,1.98-.73,2.89-1.29,1.54-.93,2.73-2.21,3.8-3.63-.58.15-1.14.35-1.71.55-.72.27-1.54.33-2.3.35-.52-.01-1.15-.02-1.52-.45-.26-.24-.2-.67-.09-.97.17-.32.59-.52.91-.67,1.02-.46,2.01-.98,2.88-1.69.85-.66,1.48-1.46,2.18-2.27.35-.41.55-.91.87-1.34-.63.61-1.4.82-2.21,1.1-.74.25-1.55.34-2.33.3-.38-.02-.74-.25-.75-.65-.03-.54.36-.81.76-1.07.97-.59,1.88-1.23,2.69-2.03,1-1,2.04-2.18,2.56-3.52-.98.64-1.86,1.27-3,1.64-.36.09-.86.08-1.13-.21-.15-.2-.17-.5-.13-.74.16-.24.42-.44.65-.63.79-.65,1.48-1.38,2.14-2.16.89-1.06,1.53-2.26,2.03-3.54.2-.48.41-.84.97-.91Z"/>
  <path class="uuid-6ecfc6e0-4321-4cd4-a14c-8d8c37be74b2" d="M60.61,59.07c.16.5.14,1.09.23,1.62.17.94.53,1.84,1.15,2.58.9,1.2,1.99,1.94,2.6,3.35.37.92.62,1.99.49,2.98-.11,1.21-.68,2.42-1.64,3.19-.9.8-2.13,1.09-3.31.9.36-.65.9-1.12,1.19-1.79.33-.75.48-1.58.48-2.4-.08-1.41-1.05-2.75-2.06-3.67-.04.82.01,1.55-.41,2.3-.42.85-1.32,1.04-1.72,1.87-.2.42-.21.95-.19,1.4.04.79.52,1.47.8,2.2-1.19-.07-2.33-.94-3.04-1.85-.86-1.22-1.29-2.75-1.18-4.24.06-1.09.4-2.28,1.27-3,.12.6.32,1.12.69,1.61.15.24.41.36.7.33.16-.58-.08-1.26-.11-1.86-.14-.83.08-1.57.36-2.34.42-1.19,1.36-2.2,2.44-2.83.35-.2.85-.46,1.27-.36Z"/>
  <path class="uuid-6ecfc6e0-4321-4cd4-a14c-8d8c37be74b2" d="M52.5,74.96c.65-.24,1.45.03,2.09.19,1.75.53,3.5,1.06,5.23,1.64.43.09.93-.19,1.34-.31,1.42-.5,2.88-.87,4.32-1.33.68-.19,1.32-.47,2.01-.14.62.32.8,1.13.42,1.71-.34.49-.96.79-1.53.95-.67.19-1.3.43-1.99.57,1.19.4,2.4.68,3.57,1.17.39.18.73.5.88.9.13.52.05,1.07-.34,1.46-.37.41-.94.53-1.47.41-.94-.21-1.85-.59-2.77-.88-1.46-.5-2.93-.97-4.39-1.46-.19-.07-.39.03-.57.09-1.5.57-3.04,1.07-4.56,1.57-.81.28-1.72.69-2.58.72-.9-.08-1.55-1.11-1.14-1.95.32-.82,1.12-.96,1.86-1.24.69-.28,1.42-.47,2.08-.79-.68-.23-1.38-.39-2.07-.59-.41-.13-.8-.27-1.06-.63-.55-.66-.14-1.84.67-2.07Z"/>
  <path class="uuid-6ecfc6e0-4321-4cd4-a14c-8d8c37be74b2" d="M51.25,88c.44-.08.96-.05,1.34.21.85.49,1.09,1.81.44,2.55-.65.9-2.18.85-2.77-.09-.65-.96-.24-2.44.98-2.67Z"/>
  <path class="uuid-6ecfc6e0-4321-4cd4-a14c-8d8c37be74b2" d="M95.76,88.02c.53-.09,1.1-.07,1.54.27.38.25.55.75.63,1.18.13.75-.36,1.47-1.01,1.8-.76.32-1.69.1-2.12-.64-.65-.9-.14-2.35.95-2.61Z"/>
  <path class="uuid-6ecfc6e0-4321-4cd4-a14c-8d8c37be74b2" d="M45.53,88.2c.99,0,1.98.02,2.97,0,.02,4.78.01,9.55,0,14.33-.99-.02-1.99,0-2.98-.02.03-4.77.02-9.54,0-14.3Z"/>
  <path class="uuid-6ecfc6e0-4321-4cd4-a14c-8d8c37be74b2" d="M105.97,88.2c.98.06,1.96.05,2.94.06.07,4.75,0,9.5.04,14.25-.97-.01-1.95.03-2.92-.02-.02-.33-.03-.67-.03-1.01-.41.48-.83.92-1.44,1.17-1.12.42-2.43.23-3.45-.4-1.07-.63-1.71-1.86-1.95-3.05-.32-1.38-.2-2.83.3-4.15.42-1.01,1.03-1.9,2.02-2.42,1.05-.6,2.44-.71,3.51-.1.42.23.67.59.94.96.07-1.77,0-3.54.03-5.3Z"/>
  <path class="uuid-6ecfc6e0-4321-4cd4-a14c-8d8c37be74b2" d="M67.13,89.26c.19,1.04.06,2.12.14,3.17.65,0,1.3,0,1.94-.03,0,.77-.02,1.55,0,2.32-.66,0-1.33,0-1.99,0-.15,1.11-.03,2.25-.08,3.37.02.66-.01,1.69.57,2.13.42.15.93.02,1.37-.03.06.75.03,1.51-.01,2.26-.74.22-1.52.51-2.3.37-.61-.1-1.33-.28-1.75-.76-.52-.52-.65-1.32-.66-2.02-.03-1.77-.01-3.55-.02-5.32-.51.01-1.02.02-1.53.02-.04-.78-.03-1.55-.04-2.33.52,0,1.04,0,1.57.01,0-.79.01-1.57,0-2.36.93-.29,1.86-.54,2.8-.81Z"/>
  <path class="uuid-6ecfc6e0-4321-4cd4-a14c-8d8c37be74b2" d="M6.87,92.29c1.55.42,2.76,1.79,2.86,3.42-.86.18-1.66.52-2.52.67-.17-.63-.24-1.2-.86-1.54-.71-.28-1.68.04-2.03.74-.37.65-.38,1.51-.38,2.24,0,.73.15,1.44.57,2.05.43.57,1.34.69,1.95.34.47-.32.67-.87.92-1.36.78.24,1.57.29,2.37.42-.01,1.14-.61,2.19-1.5,2.88-.76.55-1.74.71-2.65.72-1.11.05-2.26-.39-3.06-1.16-.82-.75-1.26-1.95-1.43-3.03-.16-1.15-.13-2.42.32-3.51.35-.89.93-1.76,1.77-2.26,1.08-.71,2.45-.94,3.7-.63Z"/>
  <path class="uuid-6ecfc6e0-4321-4cd4-a14c-8d8c37be74b2" d="M14.9,92.14c1.1,0,2.28.4,3.02,1.26.56.71.78,1.72.8,2.61.06,2.17-.02,4.34.05,6.5-.88,0-1.76,0-2.64,0-.03-.29-.06-.58-.06-.87-.52.64-1.2,1.1-2.03,1.21-1.14.15-2.52-.29-3.12-1.35-.42-.65-.47-1.38-.39-2.13.1-.7.54-1.35,1.1-1.76,1.26-.8,2.85-.89,4.31-1.04,0-.52.1-1.18-.29-1.6-.46-.54-1.23-.53-1.78-.14-.38.24-.48.66-.64,1.05-.82-.13-1.65-.17-2.47-.28-.01-.93.37-1.79,1.06-2.42.86-.73,1.97-1.09,3.09-1.05Z"/>
  <path class="uuid-6ecfc6e0-4321-4cd4-a14c-8d8c37be74b2" d="M26.33,92.22c.78.17,1.41.67,1.82,1.34.45-.74,1.19-1.06,1.98-1.31,1.21-.29,2.65.09,3.36,1.18.54.9.57,1.99.57,3-.01,2.04.01,4.09-.01,6.13-.93-.07-1.86-.05-2.79-.04.02-1.98,0-3.97,0-5.95,0-.46,0-.95-.26-1.35-.4-.61-1.39-.65-1.9-.16-.41.39-.54.96-.53,1.51.02,1.99,0,3.97.02,5.96-.97,0-1.93-.03-2.9,0,0-2.13,0-4.25-.01-6.38,0-.51-.12-1-.57-1.3-.58-.33-1.4-.12-1.77.43-.27.5-.26,1.15-.27,1.71,0,1.84-.01,3.68.02,5.53-.94,0-1.89,0-2.83,0,.03-3.36,0-6.72,0-10.08.88.04,1.76.01,2.64,0,.01.38.02.75,0,1.13.67-1.19,2.13-1.64,3.42-1.34Z"/>
  <path class="uuid-6ecfc6e0-4321-4cd4-a14c-8d8c37be74b2" d="M42.14,92.4c1.06.43,1.68,1.35,2.08,2.38.52,1.39.44,2.84.27,4.29-.16,1.18-.71,2.29-1.65,3.04-.54.44-1.26.65-1.95.72-.95.08-1.9-.11-2.53-.87-.08,1.52-.04,3.05-.06,4.57-.97.05-1.95.03-2.92.01.02-4.71.05-9.42,0-14.14.89.03,1.78.01,2.68.04.02.42.02.85,0,1.27.78-1.44,2.6-1.94,4.07-1.32Z"/>
  <path class="uuid-6ecfc6e0-4321-4cd4-a14c-8d8c37be74b2" d="M58.42,92.14c.92-.02,1.87.28,2.58.87.68.61.89,1.41,1.01,2.29-.79.1-1.58.24-2.37.34-.17-.41-.24-.79-.65-1.04-.42-.33-1.08-.26-1.49.05-.34.29-.45.8-.11,1.13.67.58,1.57.54,2.4.83.84.28,1.81.66,2.28,1.46.41.61.41,1.38.33,2.08-.09.73-.47,1.39-1.05,1.84-.73.55-1.6.81-2.51.86-1.16.12-2.33-.1-3.3-.77-.69-.5-1.09-1.28-1.22-2.12.68-.45,1.67-.5,2.46-.66.1.28.17.65.38.88.6.64,1.75.74,2.44.2.42-.32.18-1.08-.27-1.25-1.34-.56-2.6-.6-3.78-1.5-1.26-.9-1.27-2.9-.4-4.07.72-1.04,2.06-1.44,3.27-1.43Z"/>
  <path class="uuid-6ecfc6e0-4321-4cd4-a14c-8d8c37be74b2" d="M79.01,92.25c.61.15,1,.53,1.46.91.02.09.04.19.07.28.14-.29.22-.93.6-1,.64-.06,1.28-.01,1.92-.02.01,3.05-.02,6.1.02,9.15,0,.92.06,1.85-.24,2.73-.42,1.18-1.5,2.01-2.69,2.31-1.16.3-2.31.18-3.46-.1-.79-.19-1.51-.61-2.2-1.03.4-.77.88-1.5,1.3-2.26.84.65,1.82,1.08,2.9.98.77,0,1.42-.63,1.57-1.36.09-.55.03-1.13.06-1.68-.82,1.27-2.52,1.57-3.86,1.01-.84-.33-1.38-1.02-1.81-1.78-.65-1.27-.78-2.7-.6-4.1.13-1.11.57-2.23,1.37-3.03.91-.93,2.34-1.31,3.6-1Z"/>
  <path class="uuid-6ecfc6e0-4321-4cd4-a14c-8d8c37be74b2" d="M116.41,92.54c1.35.58,2.12,1.84,2.44,3.22.17.85.16,1.69.14,2.55-2.03,0-4.06-.03-6.09.04.08.67.3,1.29.82,1.75.5.39,1.18.53,1.79.31.55-.16.82-.67,1.23-1.02.77.18,1.51.49,2.26.75-.39.64-.68,1.3-1.28,1.78-.9.78-2.24,1.02-3.4.96-1.39-.05-2.75-.81-3.47-2.01-.71-1.12-.97-2.55-.87-3.86.16-1.16.43-2.24,1.18-3.17,1.18-1.57,3.46-2.14,5.24-1.3Z"/>
  <path class="uuid-6ecfc6e0-4321-4cd4-a14c-8d8c37be74b2" d="M50.25,92.43c.95-.03,1.9,0,2.85-.02.03,3.36,0,6.73.02,10.09-.96,0-1.92,0-2.89,0,.03-3.35,0-6.72.02-10.07Z"/>
  <path class="uuid-6ecfc6e0-4321-4cd4-a14c-8d8c37be74b2" d="M84.59,92.43c.95-.02,1.89.02,2.84,0-.01,1.94,0,3.87,0,5.81,0,.41,0,.87.12,1.27.11.41.49.72.91.78.55.05,1.09,0,1.5-.41.36-.32.33-.79.35-1.23,0-2.08,0-4.16,0-6.24.99.03,1.98.02,2.97,0,.02,3.36-.03,6.73.01,10.09-.94-.01-1.89.01-2.83,0-.03-.29-.05-.59-.08-.89-.41.42-.83.8-1.38,1.01-1.25.46-2.92.23-3.74-.92-.41-.6-.66-1.36-.64-2.09,0-2.4.02-4.81-.01-7.2Z"/>
  <path class="uuid-6ecfc6e0-4321-4cd4-a14c-8d8c37be74b2" d="M94.84,92.42c.99,0,1.97,0,2.96.01.02,3.36.01,6.72.02,10.08-1,0-1.99.02-2.99-.01,0-3.36,0-6.72.01-10.08Z"/>
  <path class="uuid-79ab16b5-de77-4bb0-81f4-aee8caadc90f" d="M115.59,94.9c.49.44.53.99.63,1.61-1.11-.02-2.21,0-3.32-.01.14-.6.23-1.17.74-1.58.55-.49,1.42-.52,1.96,0Z"/>
  <path class="uuid-79ab16b5-de77-4bb0-81f4-aee8caadc90f" d="M105.57,95.3c.52.7.44,1.42.44,2.24-.02.76.12,1.48-.42,2.11-.71.91-2.16.92-2.93.11-.63-.72-.7-1.65-.7-2.56.02-.77.32-1.69.95-2.17.79-.53,2.08-.59,2.66.28Z"/>
  <path class="uuid-79ab16b5-de77-4bb0-81f4-aee8caadc90f" d="M40.94,94.99c.65.59.78,1.57.78,2.41s0,1.7-.53,2.36c-.48.62-1.4.74-2.09.42-.32-.15-.67-.4-.73-.77-.11-.61-.06-1.26-.06-1.88.03-.73-.1-1.49.32-2.12.46-.78,1.62-1.01,2.31-.42Z"/>
  <path class="uuid-79ab16b5-de77-4bb0-81f4-aee8caadc90f" d="M79.98,95.31c.42.71.31,1.44.32,2.23-.02.69.08,1.31-.41,1.86-.62.68-2.08.64-2.53-.23-.41-.67-.43-1.44-.4-2.2.03-.65.24-1.4.72-1.87.61-.64,1.83-.58,2.3.2Z"/>
  <path class="uuid-79ab16b5-de77-4bb0-81f4-aee8caadc90f" d="M15.95,98.24c0,.53.02,1.13-.14,1.64-.1.34-.52.54-.82.66-.39.13-.92.22-1.28-.03-.6-.38-.55-1.37.05-1.73.63-.37,1.48-.43,2.19-.54Z"/>
  <path class="uuid-6ecfc6e0-4321-4cd4-a14c-8d8c37be74b2" d="M70.87,99.56c.44-.2.99-.2,1.45-.1.86.24,1.32,1.28,1.1,2.11-.16.74-.91,1.29-1.66,1.28-.94.02-1.73-.79-1.77-1.71-.06-.66.32-1.25.87-1.59Z"/>
</svg>